<svg width="1200" height="800" viewBox="0 0 1200 800" fill="none" xmlns="http://www.w3.org/2000/svg">
<path opacity="0.8" d="M964.7 279.557L1017.17 238.405L1069.65 197.253L1099.27 174.022C1100.91 172.736 1098.38 170.731 1096.74 172.016L1044.27 213.168L991.792 254.32L962.17 277.551C960.532 278.837 963.061 280.842 964.7 279.557V279.557Z" fill="url(#paint0_linear)"/>
<path d="M426.692 141.626C429.836 141.626 432.384 139.919 432.384 137.813C432.384 135.707 429.836 134 426.692 134C423.548 134 421 135.707 421 137.813C421 139.919 423.548 141.626 426.692 141.626Z" fill="#E3FF63"/>
<path d="M450.417 427.627L447.576 429.518L444.754 427.615L442.86 428.875L445.682 430.778L442.841 432.668L444.723 433.937L447.563 432.047L450.385 433.95L452.279 432.689L449.457 430.786L452.298 428.896L450.417 427.627Z" fill="#E6E6E6"/>
<path d="M473.185 317.048L470.344 318.938L467.523 317.035L465.629 318.295L468.45 320.198L465.61 322.089L467.491 323.357L470.332 321.467L473.153 323.37L475.047 322.11L472.225 320.207L475.066 318.317L473.185 317.048Z" fill="#E6E6E6"/>
<path d="M554.22 132.357C548.073 135.101 541.782 128.571 548.047 125.949C554.193 123.206 560.484 129.736 554.22 132.357Z" fill="#E6E6E6"/>
<path d="M188.685 390.989L184.775 390.414L185.631 387.794L183.024 387.411L182.166 390.031L178.256 389.458L177.684 391.204L181.595 391.779L180.739 394.398L183.345 394.781L184.203 392.161L188.114 392.735L188.685 390.989Z" fill="#E6E6E6"/>
<path d="M787.093 76.4733L783.183 75.8986L784.039 73.278L781.432 72.8953L780.575 75.5159L776.664 74.9423L776.093 76.6886L780.003 77.2633L779.147 79.8828L781.754 80.2656L782.612 77.645L786.522 78.2196L787.093 76.4733Z" fill="#E6E6E6"/>
<path d="M1092.66 245.992L1088.75 245.417L1089.61 242.797L1087 242.414L1086.14 245.034L1082.23 244.461L1081.66 246.207L1085.57 246.782L1084.72 249.401L1087.32 249.784L1088.18 247.164L1092.09 247.738L1092.66 245.992Z" fill="#E6E6E6"/>
<path d="M354.048 117.816L350.137 117.242L350.994 114.622L348.387 114.24L347.529 116.859L343.617 116.285L343.046 118.032L346.958 118.606L346.101 121.227L348.708 121.609L349.566 118.989L353.476 119.563L354.048 117.816Z" fill="#E6E6E6"/>
<path d="M606.007 261.618C609.151 261.618 611.699 259.91 611.699 257.805C611.699 255.699 609.151 253.991 606.007 253.991C602.864 253.991 600.315 255.699 600.315 257.805C600.315 259.91 602.864 261.618 606.007 261.618Z" fill="#E3FF63"/>
<path d="M217.832 313.145L213.921 312.571L214.778 309.95L212.171 309.567L211.313 312.188L207.403 311.614L206.831 313.361L210.742 313.935L209.885 316.555L212.492 316.938L213.35 314.317L217.26 314.892L217.832 313.145Z" fill="#E6E6E6"/>
<path d="M681.941 227.832L678.031 227.257L678.887 224.636L676.28 224.253L675.422 226.874L671.512 226.3L670.941 228.047L674.851 228.622L673.995 231.241L676.602 231.624L677.459 229.003L681.37 229.578L681.941 227.832Z" fill="#E6E6E6"/>
<path d="M271.431 179.081L267.521 178.506L268.377 175.885L265.77 175.503L264.913 178.123L261.002 177.55L260.431 179.296L264.341 179.871L263.485 182.49L266.092 182.873L266.95 180.252L270.86 180.827L271.431 179.081Z" fill="#E6E6E6"/>
<path d="M468.804 171.281L464.894 170.706L465.75 168.085L463.143 167.703L462.285 170.323L458.375 169.75L457.803 171.496L461.714 172.071L460.858 174.69L463.464 175.073L464.322 172.452L468.233 173.027L468.804 171.281Z" fill="#E6E6E6"/>
<path d="M1031.28 320.458L1027.37 319.883L1028.23 317.263L1025.62 316.88L1024.77 319.501L1020.86 318.927L1020.28 320.673L1024.19 321.248L1023.34 323.867L1025.94 324.25L1026.8 321.63L1030.71 322.204L1031.28 320.458Z" fill="#E6E6E6"/>
<path d="M395.656 281.457L391.746 280.883L392.602 278.262L389.995 277.879L389.138 280.5L385.227 279.926L384.656 281.673L388.566 282.247L387.71 284.867L390.317 285.25L391.175 282.629L395.085 283.204L395.656 281.457Z" fill="#E6E6E6"/>
<path d="M732.388 297.058L728.477 296.483L729.334 293.862L726.727 293.48L725.869 296.1L721.959 295.527L721.387 297.273L725.298 297.848L724.441 300.467L727.048 300.85L727.906 298.229L731.816 298.804L732.388 297.058Z" fill="#E6E6E6"/>
<path d="M833.093 211.638L829.182 211.063L830.039 208.444L827.432 208.061L826.574 210.681L822.662 210.107L822.091 211.853L826.003 212.428L825.146 215.049L827.753 215.43L828.611 212.811L832.522 213.384L833.093 211.638Z" fill="#E6E6E6"/>
<path d="M974 134C980.627 134 986 128.627 986 122C986 115.373 980.627 110 974 110C967.373 110 962 115.373 962 122C962 128.627 967.373 134 974 134Z" fill="#E3FF63"/>
<path d="M971.115 227.98C974.259 227.98 976.807 226.272 976.807 224.166C976.807 222.061 974.259 220.353 971.115 220.353C967.971 220.353 965.423 222.061 965.423 224.166C965.423 226.272 967.971 227.98 971.115 227.98Z" fill="#E3FF63"/>
<path d="M876.528 309.393C879.671 309.393 882.22 307.686 882.22 305.58C882.22 303.474 879.671 301.767 876.528 301.767C873.384 301.767 870.836 303.474 870.836 305.58C870.836 307.686 873.384 309.393 876.528 309.393Z" fill="#E3FF63"/>
<path d="M641.32 376.182C644.464 376.182 647.012 374.475 647.012 372.369C647.012 370.263 644.464 368.556 641.32 368.556C638.176 368.556 635.628 370.263 635.628 372.369C635.628 374.475 638.176 376.182 641.32 376.182Z" fill="#E3FF63"/>
<path d="M326.659 219.204C329.803 219.204 332.351 217.497 332.351 215.391C332.351 213.286 329.803 211.578 326.659 211.578C323.515 211.578 320.967 213.286 320.967 215.391C320.967 217.497 323.515 219.204 326.659 219.204Z" fill="#E3FF63"/>
<path d="M604.116 72.9521C607.259 72.9521 609.808 71.2449 609.808 69.139C609.808 67.0331 607.259 65.3259 604.116 65.3259C600.972 65.3259 598.424 67.0331 598.424 69.139C598.424 71.2449 600.972 72.9521 604.116 72.9521Z" fill="#E3FF63"/>
<path d="M276.843 353.269C279.986 353.269 282.535 351.562 282.535 349.456C282.535 347.35 279.986 345.643 276.843 345.643C273.699 345.643 271.151 347.35 271.151 349.456C271.151 351.562 273.699 353.269 276.843 353.269Z" fill="#E3FF63"/>
<path d="M138.115 239.192C141.258 239.192 143.807 237.485 143.807 235.379C143.807 233.273 141.258 231.566 138.115 231.566C134.971 231.566 132.422 233.273 132.422 235.379C132.422 237.485 134.971 239.192 138.115 239.192Z" fill="#E3FF63"/>
<path d="M737.799 253.818C740.943 253.818 743.491 252.11 743.491 250.004C743.491 247.898 740.943 246.191 737.799 246.191C734.656 246.191 732.107 247.898 732.107 250.004C732.107 252.11 734.656 253.818 737.799 253.818Z" fill="#E3FF63"/>
<path d="M132.703 313.145L128.793 312.571L129.649 309.95L127.042 309.567L126.184 312.188L122.274 311.614L121.703 313.361L125.613 313.935L124.757 316.555L127.364 316.938L128.221 314.317L132.132 314.892L132.703 313.145Z" fill="#E6E6E6"/>
<path d="M953.459 415.183C956.602 415.183 959.151 413.475 959.151 411.369C959.151 409.263 956.602 407.556 953.459 407.556C950.315 407.556 947.767 409.263 947.767 411.369C947.767 413.475 950.315 415.183 953.459 415.183Z" fill="#E3FF63"/>
<path d="M426.922 72.9521C430.065 72.9521 432.614 71.2449 432.614 69.139C432.614 67.0331 430.065 65.3259 426.922 65.3259C423.778 65.3259 421.23 67.0331 421.23 69.139C421.23 71.2449 423.778 72.9521 426.922 72.9521Z" fill="#E3FF63"/>
<path d="M469.171 249.917C472.314 249.917 474.863 248.21 474.863 246.104C474.863 243.998 472.314 242.291 469.171 242.291C466.027 242.291 463.479 243.998 463.479 246.104C463.479 248.21 466.027 249.917 469.171 249.917Z" fill="#E3FF63"/>
<defs>
<linearGradient id="paint0_linear" x1="961.64" y1="225.786" x2="1099.8" y2="225.786" gradientUnits="userSpaceOnUse">
<stop stop-color="white"/>
<stop offset="1" stop-color="white" stop-opacity="0.3"/>
</linearGradient>
</defs>
</svg>
